<svg id="图层_1" data-name="图层 1" xmlns="http://www.w3.org/2000/svg" viewBox="0 0 96.13 108.21"><defs><style>.cls-1{fill:#fff;}</style></defs><path class="cls-1" d="M958.08,632.41c-.09.17-1.08,1.66-1.22,1.86a.31.31,0,0,1-.43.12.3.3,0,0,1-.08-.41,3.61,3.61,0,0,1,1.69-1.62S958.09,632.39,958.08,632.41Z" transform="translate(-935.82 -576.2)"/><path class="cls-1" d="M954.29,634.73a.46.46,0,0,1,.2-.69,2.36,2.36,0,0,1,.59-.11c.15,0,.22.08.15.22a.38.38,0,0,0,0,.47.13.13,0,0,1-.07.22A1.86,1.86,0,0,1,954.29,634.73Z" transform="translate(-935.82 -576.2)"/><path class="cls-1" d="M961.24,635.35a.84.84,0,0,0-.23-.93,2.35,2.35,0,0,0-.45-.3c-.16-.1-.17-.22,0-.32a.57.57,0,0,1,.51-.06,5.49,5.49,0,0,0,.7.17c.06,0,.43,0,.15-.3l-.21-.19c-.12-.11-.11-.22,0-.29s.1,0,.23-.07c.47-.22.41-1.35,0-1.22a.19.19,0,0,0-.11.09,1.39,1.39,0,0,1-1.29.61c-.2-.09-1.17-.45-1.45-.52s-.27.47,0,.57c.48.19.86.83.47.77a2.86,2.86,0,0,0-.78-.14c-.05,0-.06,0,0,.07.2.12.58.33.47.39a8.05,8.05,0,0,1-1.13-.25c-.12,0-.25,0-.29.1s.09.22.2.23a.94.94,0,0,1,.57.26.66.66,0,0,1-.16.17,1.07,1.07,0,0,1-1-.05.38.38,0,0,0-.41,0,1.15,1.15,0,0,0,.4.45c.11.07.21.1.11.21a.67.67,0,0,1-.43.26.37.37,0,0,0-.19.08c-.2.3-.25.26-.54.43s-.45.1-.51-.15-.42,0-.46.72a.45.45,0,0,0,.52.48,1.8,1.8,0,0,0,.64-.26c.24-.15.17-.15.39-.33s.21-.1.3.09a1.53,1.53,0,0,1,.06,1.24.36.36,0,0,0,.27.51.68.68,0,0,0,.45-.09,1.11,1.11,0,0,0,.44-.92,1.42,1.42,0,0,0-.55-1.09c-.3-.29-.29-.23-.05-.39h0a.31.31,0,0,1,.41,0c.27.19.33.19.58,0a.19.19,0,0,1,.26,0c.12.07.27.09.39.17C959.78,635.67,961.13,635.84,961.24,635.35Zm-1.8-.61c.07,0,.28-.23.28-.3s.14-.31.33-.23a.53.53,0,0,1,.26.27C960.38,634.66,959.73,634.94,959.44,634.74Z" transform="translate(-935.82 -576.2)"/><path class="cls-1" d="M964,640.55a1,1,0,0,1,1.4-.39.45.45,0,0,0,.69-.19,4.1,4.1,0,0,0,.59-1.25c0-.22.64,0,.62,1.23,0,.34-.22.48-.4.68s-.5.45-.73.69a4,4,0,0,0-.39.53c-.21.31-.41.62-.61.93a.44.44,0,0,1-.69.15.57.57,0,0,0-.44-.07,2.15,2.15,0,0,1-1.07,0,.48.48,0,0,1-.31-.62.5.5,0,0,1,.61-.34c.47.18,1.44.15,1.58-.11a4.49,4.49,0,0,0,.26-.54c.06-.17,0-.25-.18-.26h-.67c-.11,0-.3,0-.32-.06A.89.89,0,0,1,964,640.55Z" transform="translate(-935.82 -576.2)"/><path class="cls-1" d="M968,643.57l.2.12c.21.14.29.32.22.47a.49.49,0,0,1-.56.27,2.31,2.31,0,0,0-.64,0,.8.8,0,0,0-.42.16.52.52,0,0,1-.77-.07.91.91,0,0,1-.1-1.16c.35-.79,2.59-1.92,3.15-3.89,0-.19.2-.23.37-.14a.76.76,0,0,1,.41.53,1.13,1.13,0,0,1-.41,1.14c-.41.35-.82.71-1.26,1-.73.54-.68,1.29-.42,1.45Z" transform="translate(-935.82 -576.2)"/><path class="cls-1" d="M969.11,643.85c-.1-.4-.19-.79-.27-1.19s.3-.25.38-.2a1.5,1.5,0,0,1,.39,1.34C969.59,643.87,969.24,644.36,969.11,643.85Z" transform="translate(-935.82 -576.2)"/><path class="cls-1" d="M976.73,649.71a.25.25,0,0,1-.33.16c-.11,0-.25-.16-.27-.26a2.91,2.91,0,0,1,.09-1.18c0-.08,0-.21-.07-.23s-.62.68-.83,1c0,.06-.21.4-.45.32a.52.52,0,0,1-.19-.83,4,4,0,0,1,1-1l.09,0s.08-.11.06-.15-.09-.07-.14-.07c-.56,0-.77-.17-.92-.68a.29.29,0,0,1,.15-.35c.63-.36,1.27-.7,1.89-1.08a1,1,0,0,0,.47-.67c.06-.29.09-.59.18-.88s.19-.32.36-.28a.35.35,0,0,1,.24.44c-.08.37-.18.74-.27,1.1s-.22.74-.31,1.11c0,.08,0,.2,0,.25s.17,0,.24-.06c.43-.26.87-.52,1.29-.8a10.62,10.62,0,0,0,.94-.67.77.77,0,0,0,.21-.36c.07-.22.1-.45.17-.68a.76.76,0,0,1,.44-.49c.1,0,.24-.06.3,0s.1.64.23.69a5.92,5.92,0,0,0,.75-.25c.08,0,.23,0,.28.06a.22.22,0,0,1-.08.24,3.54,3.54,0,0,1-.47.26,6,6,0,0,0-1.19.79,1.7,1.7,0,0,0-.42,1.39c0,.49.67.36.86.39s.46.25.3.53a1.32,1.32,0,0,1-.44.47c-.08.05-.39.06-.31-.58,0-.34-.44-.21-.47,0,0,.67-.5,2.47-1,2.31-.19-.06-.2-.76-.18-1a.24.24,0,0,1,.13-.2c.39-.17.46-.91.4-1.12,0,0,0-.05-.07,0a4.82,4.82,0,0,0-1.27,1c-.12.21-.28.23-.44.05a.8.8,0,0,1-.11-.76.67.67,0,0,1,.62-.29l.25,0a1.2,1.2,0,0,0,.92-.26.56.56,0,0,0,.23-.37c.06-.33.12-.66.16-1s-.07-.26-.26-.17a6.43,6.43,0,0,0-1.34.93c-.2.16-.4.32-.61.46a1,1,0,0,0-.47.79A8,8,0,0,1,976.73,649.71Z" transform="translate(-935.82 -576.2)"/><path class="cls-1" d="M992.17,643.52a1.68,1.68,0,0,1-1.13.5.26.26,0,0,1-.18,0,.19.19,0,0,1,0-.18.5.5,0,0,1,.34-.35c.37-.13.4-.51.49-.83,0-.16,0-.33-.15-.39s-.29,0-.38.18-.12.21-.2.31-.2.09-.25,0a.3.3,0,0,1,0-.16c0-.38,0-.76,0-1.13,0-.18-.38-.26-.51,0a1.08,1.08,0,0,0,0,.79c.07.3.11.6.15.9,0,0,0,.13-.09.13s-.14-.24-.17-.31c-.32-.82-1.3-.38-.86,0s.78.83.17,1.26c-.18.13-.66.53-.67.89a.19.19,0,0,0,.2.23c.14,0,.2-.08.22-.2a1,1,0,0,1,.07-.36c0-.08.16-.13.24-.2a.73.73,0,0,1,.07.24c0,.24.18.34.39.22,0,0,.07-.07.11-.08a.21.21,0,0,1,.13,0,.16.16,0,0,1,0,.12.88.88,0,0,1-.12.21l-1,1.14-.72.86c-.21.25-.33.2-.49.33a.6.6,0,0,0-.16.8c.31.46.69-.46.89-.77a3.54,3.54,0,0,1,1-1.22.08.08,0,0,1,.13.06.19.19,0,0,1,0,.08,3.49,3.49,0,0,1-.15.34c-.1.28,0,.42.25.5a.34.34,0,0,1,.26.28.29.29,0,0,0,.25.25c.17,0,.2.12.07.24s-.37.44-.21.76c-.17,0-.24-.05-.3-.15a2.18,2.18,0,0,0-.11-.27s-.09-.15-.16-.14-.1.11-.11.16a2.62,2.62,0,0,0,.15,1.49.3.3,0,0,0,.26.13c.07,0,.16-.13.18-.21.06-.26.09-.53.14-.8,0,0,.08-.12.12-.12a.4.4,0,0,0,.37-.22c.29-.42.47-.4.47-.38a4,4,0,0,1,.22.72c0,.22,0,.25-.26.25-.08,0-.2,0-.22.08-.07.23.31.59.48.73A.35.35,0,0,0,992,650a1.05,1.05,0,0,0,.18-.53,7.34,7.34,0,0,0-.15-.92.24.24,0,0,1,0-.19s.14,0,.19,0a2.26,2.26,0,0,1,.31.23,6.39,6.39,0,0,0,.54.5.34.34,0,0,0,.48-.08.33.33,0,0,0,0-.49c-.11-.11-.22-.22-.34-.32a1.19,1.19,0,0,0-1.2-.32.26.26,0,0,1-.08-.48c.13-.11.28-.19.4-.31s.22-.19.2-.26a.39.39,0,0,0-.25-.28c-.23,0-.37-.12-.39-.36a.14.14,0,0,0-.08-.09c-.25-.1-.24-.31-.22-.53s0-.49-.29-.61a.18.18,0,0,1,0-.31,1.71,1.71,0,0,1,.26-.21l1-.56C992.73,643.82,992.69,643,992.17,643.52Zm-1.2-.15c-.07.26-.18.11-.17-.08C990.82,642.85,991,643.17,991,643.37Zm-.29,2.49a.35.35,0,0,1-.2.21c-.14,0-.16-.11-.14-.24,0-.29.14-.41.35-.42A2.26,2.26,0,0,1,990.68,645.86Z" transform="translate(-935.82 -576.2)"/><path class="cls-1" d="M1002.71,642.58a10.68,10.68,0,0,0-1.1-.33c-.25-.07-.33,0-.32.27a10.25,10.25,0,0,1,0,2.55,1.09,1.09,0,0,1-.6.47c-.17.05-.37,0-.35-.18s.75-2.51.31-3.1a.28.28,0,0,0-.12-.1c-.06,0-.17.2-.16.25-.12.65-.6.66-1.12.53a.69.69,0,0,1-.25-.14.26.26,0,0,1-.09-.38c.23-.39.47-.86.69-1.25a2,2,0,0,0,.11-.26c.14-.34-.18-.66-.32-.91a2.11,2.11,0,0,1-.42-1,.27.27,0,0,1,.39-.21,1.32,1.32,0,0,1,.61.53c.19.28.46.38.69.12a3.23,3.23,0,0,0,.27-.44c.18-.31,1.42-.47,1,.23l-.52,1c-.12.22-.22.46-.32.69a.4.4,0,0,0,.16.49,3,3,0,0,0,3.12,0,.51.51,0,0,1,.74.07C1005.41,641.93,1004,643,1002.71,642.58Z" transform="translate(-935.82 -576.2)"/><path class="cls-1" d="M1010,631.41a4.36,4.36,0,0,0-.45.67c-.09.16-.2.21-.33.1a.43.43,0,0,1-.16-.24c-.06-.32-.4-1.17-.85-1a.59.59,0,0,0-.38.5c0,.14,0,.72-.31.48a4.09,4.09,0,0,0-.48-.29.18.18,0,0,0-.26.12.26.26,0,0,0,.07.23,1.77,1.77,0,0,1,.47.67c0,.08-.06.23-.2.1a2.31,2.31,0,0,0-.57-.55.34.34,0,0,0-.31,0c-.15.11.27.69.44.85a4.1,4.1,0,0,0,1.08.86,1.41,1.41,0,0,1,.39.24.19.19,0,0,1,0,.3.21.21,0,0,1-.2,0c-.17-.14-.34-.28-.49-.43-.33-.34-1.53-1.58-1.46-.05,0,.16.3.18.38,0s.1-.17.21-.07l.76.73c.13.12.28.24.4.37s.1.16.06.22a.2.2,0,0,1-.21,0,2,2,0,0,1-.33-.32c-.08-.1-.24-.23-.32-.09s0,.18.07.26c.22.48.69,1.71,1,1.82s.68-.31.33-.71a.71.71,0,0,1-.07-.89c.24-.48.7-1.82.91-1.7s0,.63-.06.81c-.16.36-.34.69-.52,1-.06.11-.13.21,0,.31a.26.26,0,0,0,.36,0,2.25,2.25,0,0,0,.34-.41c.1-.16.23-.22.37-.15s.17.2.06.37-.24.38-.35.57a.59.59,0,0,0,0,.68c.18.21.86.1,1.06-.35.09-.2.17-.41.27-.61s.25-.26.41-.07a6,6,0,0,1,.47.76c.06.11.15.41-.65.76-.07,0-.29.13-.28.25s.41.19.57.18c1.67-.12,1.48-1.3,1-1.83-.27-.32-.52-.67-.78-1s-.13-.33.1-.49.24-.16.35-.25a.3.3,0,0,0-.05-.54,1.31,1.31,0,0,0-.28-.09.51.51,0,0,0-.6.28c-.07.12-.13.26-.21.38s-.23.33-.45.36c0,0,0,0,0-.05a1.2,1.2,0,0,0-.14-.92.64.64,0,0,1-.08-.3,1.47,1.47,0,0,1,.93-1.23c.18-.06.23-.17.13-.33a1.11,1.11,0,0,0-.22-.3A.61.61,0,0,0,1010,631.41Zm-.07,3.28c-.13.11-.26.18-.36.07S1009.79,634.44,1009.89,634.69Zm-1.16-1.39c-.08.1-.18.12-.26,0a1,1,0,0,1-.18-.28.78.78,0,0,0-.43-.44c-.15-.05-.18-.13-.13-.32l.64.41c.11.07.2.15.3.22A.24.24,0,0,1,1008.73,633.3Zm-.18-1.29a.12.12,0,0,1-.14.1l-.13,0c-.06-.05-.09-.11,0-.17l.16,0a.12.12,0,0,1,.13.13Z" transform="translate(-935.82 -576.2)"/><path class="cls-1" d="M984.35,623.28" transform="translate(-935.82 -576.2)"/><path class="cls-1" d="M984.35,624.26" transform="translate(-935.82 -576.2)"/><path class="cls-1" d="M1022.85,615a39,39,0,1,1-39.11-38.81A38.95,38.95,0,0,1,1022.85,615Zm-39.1-36.94A37.06,37.06,0,1,0,1021,615,37.08,37.08,0,0,0,983.75,578.07Z" transform="translate(-935.82 -576.2)"/><path class="cls-1" d="M1010.11,615.05a26.25,26.25,0,1,1-26.33-26.12A26.22,26.22,0,0,1,1010.11,615.05Zm-26.32-25.19a25.28,25.28,0,1,0,25.39,25.19A25.3,25.3,0,0,0,983.79,589.86Z" transform="translate(-935.82 -576.2)"/><path class="cls-1" d="M983.92,641.33a26.22,26.22,0,0,0,24.88-18.12h-.25a26.27,26.27,0,0,0-24.64,17.39,26.25,26.25,0,0,0-24.74-17.24h-.25A26.24,26.24,0,0,0,983.92,641.33Z" transform="translate(-935.82 -576.2)"/><path class="cls-1" d="M983.26,625.32h0a1.32,1.32,0,1,0-2.64,0,1.32,1.32,0,0,0,1.32,1.32,1.45,1.45,0,0,0,.72-.22v.31a.73.73,0,0,1-.72.73.69.69,0,0,1-.69-.58l-.6.16a1.32,1.32,0,0,0,2.61-.3v-1.42Zm-1.32.72a.72.72,0,0,1-.72-.72.72.72,0,1,1,.72.72Z" transform="translate(-935.82 -576.2)"/><path class="cls-1" d="M985.14,625.43a1.28,1.28,0,0,0-.58.15l.25-1.05h1.33V624h-1.81l-.5,2.16.72.19a.68.68,0,0,1,.59-.33.71.71,0,0,1,.71.72.71.71,0,0,1-.71.71.68.68,0,0,1-.72-.58l-.59.16a1.28,1.28,0,0,0,1.31,1,1.32,1.32,0,0,0,0-2.63Z" transform="translate(-935.82 -576.2)"/><path class="cls-1" d="M989.66,627.45h-2a.73.73,0,0,1,.71-.74h0a1.36,1.36,0,1,0-1.32-1.36,1.36,1.36,0,0,0,0,.2l.59-.16v0a.72.72,0,1,1,.72.74h0a1.33,1.33,0,0,0-1.31,1.36h0v.6h2.64Z" transform="translate(-935.82 -576.2)"/><polygon class="cls-1" points="43.48 51.26 43.47 47.79 42.87 47.8 42.31 47.97 42.31 48.56 42.87 48.39 42.88 51.26 42.24 51.26 42.25 51.86 44.36 51.85 44.36 51.25 43.48 51.26"/><path class="cls-1" d="M951.17,621.69l-.2-.89,4.42-1,.2.9L953,623.37l3-.7.21.89-4.42,1-.21-.89,2.6-2.7Z" transform="translate(-935.82 -576.2)"/><path class="cls-1" d="M955.19,617a2.35,2.35,0,1,1-2.45-2.17,2.22,2.22,0,0,1,1.7.56A2.29,2.29,0,0,1,955.19,617Zm-1.3-.93a1.52,1.52,0,0,0-1.1-.31,1.46,1.46,0,0,0-1,.44,1.34,1.34,0,0,0-.34,1,1.36,1.36,0,0,0,.46,1A1.7,1.7,0,0,0,954,618a1.31,1.31,0,0,0,.35-1A1.34,1.34,0,0,0,953.89,616Z" transform="translate(-935.82 -576.2)"/><path class="cls-1" d="M953.36,613l1.8.16-.09.91-4.5-.42.15-1.66a1.68,1.68,0,0,1,.51-1.16,1.27,1.27,0,0,1,1-.34,1.38,1.38,0,0,1,.77.34,1.34,1.34,0,0,1,.43.86l2-1-.11,1.08-1.89.91Zm-2-.19,1.31.12.08-.75a.75.75,0,0,0-.13-.54.66.66,0,0,0-.47-.22.62.62,0,0,0-.49.13.72.72,0,0,0-.23.51Z" transform="translate(-935.82 -576.2)"/><path class="cls-1" d="M951.73,609.46l-.68-.16.76-3.27.68.16-.28,1.2,3.73.86-.21.88-3.72-.86Z" transform="translate(-935.82 -576.2)"/><path class="cls-1" d="M953.18,602.23l.33-.85,4.22,1.64-.33.85-1.81-.7-.7,1.81,1.8.71-.33.85-4.22-1.64.34-.85,1.75.68.71-1.81Z" transform="translate(-935.82 -576.2)"/><path class="cls-1" d="M955.43,597.8l.61.34-.82,1.49,1,.57.73-1.31.62.34-.74,1.32,1.09.61.83-1.48.61.34-1.27,2.28-4-2.22Z" transform="translate(-935.82 -576.2)"/><path class="cls-1" d="M961.58,597l-.86-.28-1.06,1.41.5.74-.58.77-2.66-4,.65-.87,4.59,1.46Zm-2.33.52.77-1-1.89-.62Z" transform="translate(-935.82 -576.2)"/><path class="cls-1" d="M960.83,592.11a.65.65,0,0,0-.22.41.43.43,0,0,0,.15.39.56.56,0,0,0,.36.19.8.8,0,0,0,.39-.08c.13-.07.27-.14.41-.23l.45-.25a3.36,3.36,0,0,1,.47-.17.91.91,0,0,1,.49,0,1.21,1.21,0,0,1,.5.32,1.25,1.25,0,0,1,.36,1,1.7,1.7,0,0,1-.56,1.12,1.94,1.94,0,0,1-1.09.59,1.13,1.13,0,0,1-1-.37l.69-.69a.6.6,0,0,0,.9-.05.7.7,0,0,0,.23-.47.56.56,0,0,0-.17-.43.47.47,0,0,0-.47-.13,1.88,1.88,0,0,0-.58.24,6,6,0,0,1-.61.35,1.28,1.28,0,0,1-.69.14,1.1,1.1,0,0,1-.68-.35,1.2,1.2,0,0,1-.38-1,1.73,1.73,0,0,1,.56-1.08,1.83,1.83,0,0,1,1-.57,1.24,1.24,0,0,1,1,.37l-.71.7a.58.58,0,0,0-.42-.15A.56.56,0,0,0,960.83,592.11Z" transform="translate(-935.82 -576.2)"/><path class="cls-1" d="M962.78,590.29l-.42-.55,2.66-2,.43.55-1,.74,2.32,3-.72.55-2.32-3Z" transform="translate(-935.82 -576.2)"/><path class="cls-1" d="M969.85,590l-2-4,2.5-1.26.31.63-1.68.85.53,1.06,1.28-.65.32.63-1.29.64.87,1.73Z" transform="translate(-935.82 -576.2)"/><path class="cls-1" d="M974.83,587.94a2.26,2.26,0,0,1-1.77-.11,2.39,2.39,0,0,1-1-3.16,2.4,2.4,0,0,1,3.12-1,2.42,2.42,0,0,1,1,3.16A2.26,2.26,0,0,1,974.83,587.94Zm.55-1.5a1.69,1.69,0,0,0-.67-2,1.44,1.44,0,0,0-1.9.63,1.49,1.49,0,0,0,0,1.14,1.47,1.47,0,0,0,.71.9,1.43,1.43,0,0,0,1.89-.63Z" transform="translate(-935.82 -576.2)"/><path class="cls-1" d="M978.16,585.16l.29,1.78-.9.15-.74-4.47,1.65-.27a1.74,1.74,0,0,1,1.25.19,1.26,1.26,0,0,1,.58.89,1.32,1.32,0,0,1-.85,1.46l1.44,1.65-1.07.17-1.36-1.6Zm-.33-2,.21,1.3.75-.12a.78.78,0,0,0,.49-.26.67.67,0,0,0,.1-.51.68.68,0,0,0-.26-.45.8.8,0,0,0-.55-.09Z" transform="translate(-935.82 -576.2)"/><path class="cls-1" d="M984,581.88l0,.7-1.7,0,0,1.19,1.5-.05,0,.7-1.51,0,.05,1.25,1.69-.06,0,.7-2.61.09-.16-4.53Z" transform="translate(-935.82 -576.2)"/><path class="cls-1" d="M986.79,582.71a.66.66,0,0,0-.45.1.48.48,0,0,0-.21.37.6.6,0,0,0,.09.39.92.92,0,0,0,.32.25,3.68,3.68,0,0,0,.44.17,4.62,4.62,0,0,1,.47.19,2.63,2.63,0,0,1,.44.24,1,1,0,0,1,.3.39,1.3,1.3,0,0,1-.46,1.5,1.66,1.66,0,0,1-1.21.29,1.85,1.85,0,0,1-1.15-.45,1.18,1.18,0,0,1-.37-1l1,.09c0,.4.21.61.63.65a.73.73,0,0,0,.5-.11.58.58,0,0,0,.22-.42.47.47,0,0,0-.2-.44,2,2,0,0,0-.56-.29,5.92,5.92,0,0,1-.66-.25,1.36,1.36,0,0,1-.55-.43,1.08,1.08,0,0,1-.17-.75,1.22,1.22,0,0,1,.54-.94,1.7,1.7,0,0,1,1.18-.26,1.8,1.8,0,0,1,1.09.42,1.23,1.23,0,0,1,.38,1l-1-.09a.63.63,0,0,0-.15-.43A.66.66,0,0,0,986.79,582.71Z" transform="translate(-935.82 -576.2)"/><path class="cls-1" d="M989.43,583l.16-.68,3.27.74-.16.68-1.19-.27-.84,3.73-.89-.2.84-3.73Z" transform="translate(-935.82 -576.2)"/><path class="cls-1" d="M993.88,586.31l-.63,1.68-.86-.32,1.58-4.23,1.56.58a1.71,1.71,0,0,1,1,.79,1.28,1.28,0,0,1,.06,1.05,1.31,1.31,0,0,1-1.47.85l.44,2.14-1-.37-.38-2.07Zm.7-1.9-.46,1.24.71.26a.71.71,0,0,0,.55,0,.74.74,0,0,0,.34-.91.74.74,0,0,0-.43-.35Z" transform="translate(-935.82 -576.2)"/><path class="cls-1" d="M998,590.12l-.8-.44.74-1.36L998,585l.9.49-.17,2.33,1.86-1.42.9.49-2.76,1.88Z" transform="translate(-935.82 -576.2)"/><path class="cls-1" d="M1002.31,590.84l1.81-2.12.7.6-1.81,2.11a.93.93,0,0,0-.28.69.87.87,0,0,0,.36.63.94.94,0,0,0,.67.26,1,1,0,0,0,.64-.38l1.81-2.12.69.59-1.81,2.12a1.64,1.64,0,0,1-1.27.65,2,2,0,0,1-1.29-.5,1.87,1.87,0,0,1-.68-1.19A1.66,1.66,0,0,1,1002.31,590.84Z" transform="translate(-935.82 -576.2)"/><path class="cls-1" d="M1009.89,594.39l.59.7L1007,598l-.59-.69,1.06-3.6-2.39,2-.59-.7,3.45-2.94.59.69-1.06,3.6Z" transform="translate(-935.82 -576.2)"/><path class="cls-1" d="M1007.48,598.76l3.75-2.53.51.76-3.75,2.53Z" transform="translate(-935.82 -576.2)"/><path class="cls-1" d="M1009.07,601.31l3.23-3.57.45.85-2.61,2.78,3.77-.59.45.86-4.77.65Z" transform="translate(-935.82 -576.2)"/><path class="cls-1" d="M1015.63,605.08l-.65.24-.58-1.6-1.12.41.51,1.41-.65.24-.52-1.41-1.17.43.58,1.59-.66.24-.89-2.45,4.26-1.55Z" transform="translate(-935.82 -576.2)"/><path class="cls-1" d="M1013.56,607.88l-1.76.39-.19-.89,4.41-1,.36,1.62a1.67,1.67,0,0,1-.12,1.27,1.26,1.26,0,0,1-.85.62,1.36,1.36,0,0,1-.84-.08,1.33,1.33,0,0,1-.67-.69l-1.56,1.53-.24-1,1.53-1.45Zm2-.44-1.29.29.16.73a.69.69,0,0,0,.29.47.63.63,0,0,0,.51.08.67.67,0,0,0,.43-.28.74.74,0,0,0,.06-.56Z" transform="translate(-935.82 -576.2)"/><path class="cls-1" d="M1016.38,612.51a.65.65,0,0,0-.17-.43.44.44,0,0,0-.4-.14.53.53,0,0,0-.37.15.79.79,0,0,0-.19.35c0,.14-.07.3-.1.46a4.59,4.59,0,0,1-.1.51,2.38,2.38,0,0,1-.17.47.94.94,0,0,1-.33.36,1.32,1.32,0,0,1-.56.17,1.23,1.23,0,0,1-1-.37,1.68,1.68,0,0,1-.5-1.14,1.93,1.93,0,0,1,.25-1.21,1.16,1.16,0,0,1,.94-.53l.08,1a.58.58,0,0,0-.54.72.67.67,0,0,0,.2.48.55.55,0,0,0,.44.15.49.49,0,0,0,.4-.28,1.64,1.64,0,0,0,.19-.59c0-.23.08-.47.13-.7a1.32,1.32,0,0,1,.34-.61,1,1,0,0,1,.71-.3,1.22,1.22,0,0,1,1,.37,1.74,1.74,0,0,1,.46,1.11,1.91,1.91,0,0,1-.23,1.16,1.25,1.25,0,0,1-.94.54l-.08-1a.7.7,0,0,0,.4-.23A.61.61,0,0,0,1016.38,612.51Z" transform="translate(-935.82 -576.2)"/><path class="cls-1" d="M1012.64,615.27l4.52.08v.92l-4.52-.08Z" transform="translate(-935.82 -576.2)"/><path class="cls-1" d="M1016.45,617.21l.69.08-.37,3.33-.7-.08.14-1.22-3.8-.42.1-.91,3.8.43Z" transform="translate(-935.82 -576.2)"/><path class="cls-1" d="M1011.67,622.66l.22-.89,1.51.38,3.25-.76-.25,1-2.3.42,1.83,1.45-.25,1-2.5-2.2Z" transform="translate(-935.82 -576.2)"/><path class="cls-1" d="M1005.08,620.71" transform="translate(-935.82 -576.2)"/><path class="cls-1" d="M981.63,592.14" transform="translate(-935.82 -576.2)"/><path class="cls-1" d="M969.51,591.81" transform="translate(-935.82 -576.2)"/><path class="cls-1" d="M998.06,591.81" transform="translate(-935.82 -576.2)"/><path class="cls-1" d="M975.76,675.23a.51.51,0,0,1-.62.39c-.23-.07-.53-.26-.58-.46-.34-.57-.1-2-.11-2.35,0-.15,0-.41-.19-.44-.41-.09-1.06,1.5-1.41,2.11-.06.12-.33.84-.81.73-.26-.05-1.1-.49-.58-1.6a7.91,7.91,0,0,1,1.72-2.15c.05,0,.13-.07.15-.12s.14-.24.1-.31a.38.38,0,0,0-.31-.11,1.57,1.57,0,0,1-2-1.15.55.55,0,0,1,.22-.72c1.16-.85,2.34-1.68,3.47-2.56a2.09,2.09,0,0,0,.79-1.43,17.8,17.8,0,0,1,.15-1.78c.08-.51.3-.69.65-.65a.72.72,0,0,1,.58.83c-.08.75-.19,1.49-.3,2.23s-.25,1.52-.35,2.27c0,.15,0,.41.14.48s.33-.08.46-.18c.8-.61,1.6-1.23,2.37-1.87.59-.49,1.16-1,1.7-1.53a1.58,1.58,0,0,0,.33-.77c.09-.45.1-.92.18-1.38a1.54,1.54,0,0,1,.75-1.08.47.47,0,0,1,.61,0c.19.21.34,1.24.6,1.3a11,11,0,0,0,1.44-.66c.14-.07.43-.1.55.05a.44.44,0,0,1-.09.49,6.35,6.35,0,0,1-.88.63,12.83,12.83,0,0,0-2.16,1.83,3.39,3.39,0,0,0-.51,2.85c.13,1,1.41.57,1.78.57.65,0,1,.4.73,1a2.83,2.83,0,0,1-.77,1c-.15.12-.76.2-.74-1.07-.07-.68-.93-.33-.92.17,0,1.35-.42,5-1.39,4.8-.4-.08-.57-1.47-.6-2a.52.52,0,0,1,.21-.43c.74-.42.71-1.91.53-2.32a.09.09,0,0,0-.14,0,10,10,0,0,0-2.29,2.2c-.17.44-.49.52-.84.2a1.59,1.59,0,0,1-.4-1.47,1.3,1.3,0,0,1,1.15-.71,2.83,2.83,0,0,1,.5,0,2.41,2.41,0,0,0,1.77-.74,1.15,1.15,0,0,0,.37-.77c0-.67.07-1.34.08-2,0-.4-.19-.5-.54-.27a12.75,12.75,0,0,0-2.45,2.13,12.22,12.22,0,0,1-1.09,1.07,2,2,0,0,0-.75,1.65A16.43,16.43,0,0,1,975.76,675.23Z" transform="translate(-935.82 -576.2)"/><path class="cls-1" d="M1010.73,673.32a22,22,0,0,0-1.4-2c-.33-.43-.56-.41-.88,0-.56.8-2.61,3.9-3.34,4.2a2.32,2.32,0,0,1-1.61,0c-.35-.14-.6-.48-.34-.75s4.45-3.23,4.48-4.78a.53.53,0,0,0-.06-.31c-.08-.14-.55.1-.6.21-1,.93-1.84.32-2.54-.56a1.47,1.47,0,0,1-.24-.54.57.57,0,0,1,.35-.77c.88-.34,1.87-.82,2.73-1.18a3.5,3.5,0,0,0,.53-.31c.67-.4.55-1.32.62-1.93a4.52,4.52,0,0,1,.54-2.13.58.58,0,0,1,.92.16,2.8,2.8,0,0,1,.35,1.65c0,.71.27,1.23,1,1.08a7.79,7.79,0,0,0,1-.37c.69-.29,3,1,1.42,1.7-.61.26-1.48.63-2.08.9s-1,.49-1.42.76a.82.82,0,0,0-.36,1,6.36,6.36,0,0,0,5.22,3.95c.74.06,1.17.51,1.15,1.06C1016.06,675.7,1012.28,675.69,1010.73,673.32Z" transform="translate(-935.82 -576.2)"/><path class="cls-1" d="M953.5,670.61a2,2,0,0,1,2.09-2.25c.75-.05,1-.36,1-1.1a8.43,8.43,0,0,0-.31-2.91c-.22-.4,1.1-.78,2.47,1.54a2,2,0,0,1,0,1.66c-.16.69-.39,1.37-.54,2.06a9.09,9.09,0,0,0-.12,1.39c0,.78-.07,1.56-.09,2.35s-.33,1.06-1.06,1a1.14,1.14,0,0,0-.86.35,4.85,4.85,0,0,1-1.92,1.22,1,1,0,0,1-1.25-.79,1.09,1.09,0,0,1,.73-1.29c1-.18,2.76-1.3,2.73-1.93a10.79,10.79,0,0,0-.14-1.26c-.06-.37-.26-.46-.61-.27s-.79.5-1.2.73c-.21.12-.54.33-.65.25S953.5,670.63,953.5,670.61Z" transform="translate(-935.82 -576.2)"/><path class="cls-1" d="M963.76,671.22h.49c.52,0,.87.25.92.61a1.07,1.07,0,0,1-.72,1.11,4.82,4.82,0,0,0-1.2.6,1.77,1.77,0,0,0-.59.76,1.09,1.09,0,0,1-1.47.72,1.94,1.94,0,0,1-1.46-2c-.23-1.8,2.55-6.31,1.38-10.5-.14-.38.1-.63.53-.66a1.62,1.62,0,0,1,1.31.51,2.34,2.34,0,0,1,.52,2.51c-.34,1.09-.68,2.19-1.12,3.25-.73,1.77.19,3.08.84,3.08A5.42,5.42,0,0,0,963.76,671.22Z" transform="translate(-935.82 -576.2)"/><path class="cls-1" d="M938.25,667.34c.18.41,1.55,4.3,1.74,4.83a.74.74,0,0,1-.4,1c-.3.13-.65,0-.87-.43a8.28,8.28,0,0,1-.61-5.37C938.17,667.28,938.21,667.29,938.25,667.34Z" transform="translate(-935.82 -576.2)"/><path class="cls-1" d="M937.25,677.55a1.07,1.07,0,0,1-1-1.33,6,6,0,0,1,.62-1.24c.18-.29.45-.28.62,0a.86.86,0,0,0,.92.57.31.31,0,0,1,.32.45A4.29,4.29,0,0,1,937.25,677.55Z" transform="translate(-935.82 -576.2)"/><path class="cls-1" d="M966.05,670.5q-.93-.88-1.8-1.83c-.6-.57.26-.8.45-.79a3.16,3.16,0,0,1,2.2,2C966.93,670,966.85,671.28,966.05,670.5Z" transform="translate(-935.82 -576.2)"/><path class="cls-1" d="M948.07,665.61a2,2,0,0,0-2-.88,11.92,11.92,0,0,0-1.19.41c-.41.16-.63,0-.6-.4a1.32,1.32,0,0,1,.6-1,10.49,10.49,0,0,0,1.28-1c.12-.11.58-.82-.33-.7l-.66.12c-.37.06-.54-.1-.49-.46s.12-.2.19-.54c.26-1.15-1.93-2.62-2.29-1.63a.53.53,0,0,0,0,.33,3.16,3.16,0,0,1-.66,3.22c-.45.25-2.44,1.53-3,1.94s.49,1.17,1,.87c1-.61,2.72-.42,2.08.22a7.54,7.54,0,0,0-1.35,1.24.09.09,0,0,0,.11.15c.5-.22,1.4-.62,1.38-.34a18.33,18.33,0,0,1-2,1.73c-.24.17-.43.4-.21.69s.53.12.69-.07a2.37,2.37,0,0,1,1.29-.68,1.79,1.79,0,0,1,.08.55,2.42,2.42,0,0,1-1.48,1.75c-.3.15-.58.3-.64.73a2.85,2.85,0,0,0,1.41-.11c.27-.12.47-.26.53.08a1.57,1.57,0,0,1-.12,1.16.71.71,0,0,0-.1.46,2.53,2.53,0,0,1,0,1.61c-.07.56-.44.95-1,.71s-.63.75.69,1.85a1,1,0,0,0,1.6-.29,4.14,4.14,0,0,0,.41-1.55,5.64,5.64,0,0,0,0-1.16c0-.47.1-.53.59-.43a3.56,3.56,0,0,1,2.36,1.62.84.84,0,0,0,1.32.21,1.61,1.61,0,0,0,.46-1,2.6,2.6,0,0,0-1.09-2.1,3.34,3.34,0,0,0-2.77-.51c-1,.17-.84.23-.8-.45v-.08a.68.68,0,0,1,.55-.74c.72-.24.81-.36.81-1.09a.44.44,0,0,1,.34-.49c.3-.11.55-.36.86-.48C946.63,668.76,948.82,666.51,948.07,665.61Zm-3.64,2.46a1.89,1.89,0,0,0-.15-.93c-.36-.33-.4-.68,0-.93a1.24,1.24,0,0,1,.85-.09C945.6,666.24,945.22,667.83,944.43,668.07Z" transform="translate(-935.82 -576.2)"/><path class="cls-1" d="M1030.69,665a10.78,10.78,0,0,0-1.78.27c-.4.07-.65,0-.67-.41a1.15,1.15,0,0,1,.16-.64c.45-.58,1.35-2.41.4-2.9a1.32,1.32,0,0,0-1.4.12c-.26.17-1.18,1.11-1.27.19a8.57,8.57,0,0,0-.22-1.23.42.42,0,0,0-.6-.25.61.61,0,0,0-.28.46,4.05,4.05,0,0,1-.4,1.79c-.08.18-.49.25-.48-.18a5.12,5.12,0,0,0,.07-1.79.78.78,0,0,0-.51-.46c-.41-.08-.74,1.49-.77,2a8.71,8.71,0,0,0,.21,3.09,3.81,3.81,0,0,1,.17,1,.44.44,0,0,1-.5.46.45.45,0,0,1-.33-.28,10.31,10.31,0,0,1,0-1.47c.07-1,.34-4.89-2.11-2.5-.22.29.15.78.65.56.3-.13.44-.08.43.25,0,.78-.05,1.57-.07,2.35,0,.41,0,.82,0,1.23,0,.15-.12.4-.28.42s-.31-.23-.33-.35a4.37,4.37,0,0,1,0-1c0-.29,0-.74-.33-.66s-.24.33-.32.5c-.46,1.08-1.82,3.71-1.52,4.41s1.52.66,1.67-.51a1.6,1.6,0,0,1,1.38-1.47c1.15-.32,4.07-1.54,4.19-1s-1,1-1.46,1.12c-.81.27-1.65.47-2.48.68-.26.06-.53.09-.56.41a.56.56,0,0,0,.47.65,4.75,4.75,0,0,0,1.19,0c.42-.07.71,0,.8.39s-.08.58-.51.67-1,.15-1.48.25-1.1.39-1.19,1,1.11,1.58,2.17,1.24c.47-.15.93-.33,1.41-.47s.83,0,.73.57a11.83,11.83,0,0,1-.56,1.93c-.09.27-.45.86-2.23.07-.16-.07-.65-.3-.85-.11s.31,1,.57,1.22c2.68,2.6,4.38.52,4.6-1,.13-.94.33-1.87.5-2.8.11-.58.36-.72,1-.58.31.07.63.16.94.21a.67.67,0,0,0,.82-.88,2.37,2.37,0,0,0-.27-.61,1.16,1.16,0,0,0-1.36-.58c-.31.07-.62.17-.94.21a1.51,1.51,0,0,1-1.28-.19.08.08,0,0,1,0-.14,2.76,2.76,0,0,0,1.34-1.61,1.24,1.24,0,0,1,.37-.59,3.25,3.25,0,0,1,3.42-.29c.38.21.65.12.77-.29a3.25,3.25,0,0,0,.17-.81C1032,665.85,1031.59,664.94,1030.69,665Zm-5.56,4.78c-.37,0-.69-.15-.65-.49C1024.54,668.6,1025.39,669.2,1025.13,669.74Zm.57-4c-.29,0-.45-.13-.43-.4a2.2,2.2,0,0,1,.19-.71,1.66,1.66,0,0,0,.08-1.38c-.13-.32,0-.49.36-.68.09.57.19,1.12.28,1.67,0,.27,0,.55.08.83A.57.57,0,0,1,1025.7,665.75Zm1.88-2.23a.27.27,0,0,1-.37-.08,1.15,1.15,0,0,1-.14-.28c0-.16,0-.3.25-.29a1.88,1.88,0,0,1,.29.22.25.25,0,0,1,0,.41Z" transform="translate(-935.82 -576.2)"/><path class="cls-1" d="M999,664.63a3.48,3.48,0,0,1-2.51.41c-.12,0-.3-.07-.33-.15a.45.45,0,0,1,.11-.35,1,1,0,0,1,.86-.53c.81-.07,1.06-.81,1.4-1.4.17-.29.24-.63-.1-.86s-.59,0-.84.17a6.91,6.91,0,0,1-.57.51c-.25.17-.43.09-.47-.2a.75.75,0,0,1,0-.33c.23-.74.47-1.48.69-2.23.11-.35-.62-.71-1-.26a2.32,2.32,0,0,0-.51,1.55c0,.63-.08,1.25-.15,1.86,0,.09-.13.25-.24.23s-.17-.56-.18-.71c-.21-1.8-2.4-1.43-1.7-.48s1.11,2-.32,2.6c-.42.17-1.58.71-1.79,1.42a.41.41,0,0,0,.28.57c.27.08.43-.07.54-.3a2.44,2.44,0,0,1,.32-.67c.13-.15.39-.18.59-.27a2.19,2.19,0,0,1,0,.51c-.09.48.19.76.67.63a1.39,1.39,0,0,1,.26-.1c.09,0,.21,0,.25,0a.25.25,0,0,1,0,.25,1.49,1.49,0,0,1-.35.36c-.82.6-1.66,1.18-2.49,1.77L989.59,670c-.55.39-.78.23-1.16.39a1.26,1.26,0,0,0-.72,1.53c.38,1.07,1.62-.57,2.16-1.1a7.93,7.93,0,0,1,2.59-1.92.18.18,0,0,1,.23.2.33.33,0,0,1-.05.15c-.14.22-.32.4-.47.6-.35.5-.29.81.23,1.13a.64.64,0,0,1,.37.68.62.62,0,0,0,.38.64c.31.15.33.33,0,.51-.54.32-1,.68-.81,1.39-.37,0-.46-.21-.52-.44s0-.4-.09-.59-.09-.35-.24-.37-.26.16-.31.27a5.19,5.19,0,0,0-.45,3,.63.63,0,0,0,.43.4.66.66,0,0,0,.47-.34c.26-.49.45-1,.69-1.51,0-.09.23-.2.31-.17a.83.83,0,0,0,.84-.26c.79-.7,1.14-.55,1.14-.5a7.22,7.22,0,0,1,0,1.54c0,.45-.19.47-.63.35-.16,0-.42,0-.48.05-.26.42.31,1.34.58,1.71a.73.73,0,0,0,1.14.12,2.16,2.16,0,0,0,.62-1,17.2,17.2,0,0,0,.18-1.9c0-.13.08-.32.17-.36s.29.05.37.13a4,4,0,0,1,.49.62c.28.42.51.88.82,1.27a.7.7,0,0,0,1,.09.68.68,0,0,0,.21-1q-.24-.42-.51-.81a2.44,2.44,0,0,0-2.23-1.26.53.53,0,0,1,.1-1c.3-.16.64-.26,1-.42s.53-.28.53-.43a.85.85,0,0,0-.35-.68c-.44-.2-.68-.43-.6-.92a.25.25,0,0,0-.1-.21c-.46-.34-.34-.75-.18-1.18s.25-1-.26-1.37c-.23-.18-.19-.47.09-.64a2.65,2.65,0,0,1,.62-.27c.73-.22,1.47-.41,2.2-.62C1000,665.51,1000.33,663.81,999,664.63Zm-2.3-.91c-.27.47-.42.11-.31-.25C996.68,662.6,996.92,663.33,996.71,663.72Zm-1.87,4.8a.65.65,0,0,1-.5.32c-.28-.05-.26-.3-.16-.54.25-.57.49-.76.92-.68A4.27,4.27,0,0,1,994.84,668.52Z" transform="translate(-935.82 -576.2)"/><path class="cls-1" d="M938.35,680.37h.78v4h-.78l-1.75-2.78v2.78h-.78v-4h.78l1.75,2.77Z" transform="translate(-935.82 -576.2)"/><path class="cls-1" d="M941.72,684.42a1.92,1.92,0,0,1-1.41-.58,2.18,2.18,0,0,1,0-2.94,1.9,1.9,0,0,1,1.41-.58,1.88,1.88,0,0,1,1.4.58,2.18,2.18,0,0,1,0,2.94A1.92,1.92,0,0,1,941.72,684.42Zm.85-1.1a1.55,1.55,0,0,0,0-1.91,1.21,1.21,0,0,0-1.71,0,1.34,1.34,0,0,0-.33,1,1.36,1.36,0,0,0,.33,1,1.12,1.12,0,0,0,.86.36A1.1,1.1,0,0,0,942.57,683.32Z" transform="translate(-935.82 -576.2)"/><path class="cls-1" d="M945.09,682.78v1.6h-.78v-4h1.42a1.42,1.42,0,0,1,1,.34,1.16,1.16,0,0,1,.36.86,1.24,1.24,0,0,1-.22.71,1.17,1.17,0,0,1-.7.44l1,1.65h-.92l-.93-1.6Zm0-1.78v1.16h.64a.64.64,0,0,0,.45-.15.69.69,0,0,0,0-.86.64.64,0,0,0-.45-.15Z" transform="translate(-935.82 -576.2)"/><path class="cls-1" d="M947.67,681v-.62h2.86V681h-1v3.38h-.78V681Z" transform="translate(-935.82 -576.2)"/><path class="cls-1" d="M953.57,680.38h.78v4h-.78v-1.72h-1.66v1.72h-.78v-4h.78V682h1.66Z" transform="translate(-935.82 -576.2)"/><path class="cls-1" d="M957.41,680.37V681H956v1h1.29v.62H956v1.11h1.45v.62h-2.23v-4Z" transform="translate(-935.82 -576.2)"/><path class="cls-1" d="M960.74,684.38l-.24-.76H959l-.25.76h-.82l1.36-4h.93l1.36,4ZM959.19,683h1.11l-.56-1.67Z" transform="translate(-935.82 -576.2)"/><path class="cls-1" d="M963.36,681a.6.6,0,0,0-.38.12.41.41,0,0,0-.14.34.49.49,0,0,0,.1.34.73.73,0,0,0,.29.19,3.59,3.59,0,0,0,.39.12,3.38,3.38,0,0,1,.42.13,1.48,1.48,0,0,1,.38.18.75.75,0,0,1,.29.32,1.09,1.09,0,0,1,.11.5,1.14,1.14,0,0,1-.38.85,1.4,1.4,0,0,1-1,.36,1.58,1.58,0,0,1-1-.31,1,1,0,0,1-.39-.86h.83a.51.51,0,0,0,.58.52.56.56,0,0,0,.42-.14.49.49,0,0,0,.15-.38.43.43,0,0,0-.2-.38,1.42,1.42,0,0,0-.5-.2c-.19,0-.38-.1-.58-.17a1.12,1.12,0,0,1-.5-.34,1,1,0,0,1-.2-.64,1.11,1.11,0,0,1,.38-.87,1.43,1.43,0,0,1,1-.33,1.62,1.62,0,0,1,1,.28,1.16,1.16,0,0,1,.4.87h-.86a.55.55,0,0,0-.16-.37A.53.53,0,0,0,963.36,681Z" transform="translate(-935.82 -576.2)"/><path class="cls-1" d="M965.34,681v-.62h2.86V681h-1.05v3.38h-.77V681Z" transform="translate(-935.82 -576.2)"/><path class="cls-1" d="M970.46,684.38v-4h2.39V681h-1.61v1h1.23v.62h-1.23v1.72Z" transform="translate(-935.82 -576.2)"/><path class="cls-1" d="M975.22,684.42a1.9,1.9,0,0,1-1.4-.58,2.18,2.18,0,0,1,0-2.94,2,2,0,0,1,2.81,0,2.18,2.18,0,0,1,0,2.94A1.92,1.92,0,0,1,975.22,684.42Zm.85-1.1a1.55,1.55,0,0,0,0-1.91,1.11,1.11,0,0,0-.85-.35,1.1,1.1,0,0,0-.85.36,1.34,1.34,0,0,0-.33,1,1.36,1.36,0,0,0,.33,1,1.1,1.1,0,0,0,.85.36A1.08,1.08,0,0,0,976.07,683.32Z" transform="translate(-935.82 -576.2)"/><path class="cls-1" d="M978.59,682.78v1.6h-.78v-4h1.42a1.45,1.45,0,0,1,1,.34,1.16,1.16,0,0,1,.36.86,1.24,1.24,0,0,1-.22.71,1.17,1.17,0,0,1-.7.44l1,1.65h-.93l-.92-1.6Zm0-1.78v1.16h.64a.61.61,0,0,0,.45-.15.66.66,0,0,0,0-.86.61.61,0,0,0-.45-.15Z" transform="translate(-935.82 -576.2)"/><path class="cls-1" d="M983.63,680.37V681h-1.45v1h1.29v.62h-1.29v1.11h1.45v.62H981.4v-4Z" transform="translate(-935.82 -576.2)"/><path class="cls-1" d="M985.68,681a.6.6,0,0,0-.38.12.44.44,0,0,0-.14.34.49.49,0,0,0,.1.34.73.73,0,0,0,.29.19,3.59,3.59,0,0,0,.39.12,3.38,3.38,0,0,1,.42.13,1.48,1.48,0,0,1,.38.18.75.75,0,0,1,.29.32,1.09,1.09,0,0,1,.11.5,1.14,1.14,0,0,1-.38.85,1.4,1.4,0,0,1-1,.36,1.58,1.58,0,0,1-1-.31,1,1,0,0,1-.39-.86h.83a.51.51,0,0,0,.58.52.56.56,0,0,0,.42-.14.5.5,0,0,0,.16-.38.44.44,0,0,0-.21-.38,1.44,1.44,0,0,0-.49-.2c-.2,0-.39-.1-.59-.17a1.12,1.12,0,0,1-.5-.34,1,1,0,0,1-.2-.64,1.11,1.11,0,0,1,.38-.87,1.43,1.43,0,0,1,1-.33,1.62,1.62,0,0,1,1,.28,1.16,1.16,0,0,1,.4.87h-.86a.55.55,0,0,0-.16-.37A.53.53,0,0,0,985.68,681Z" transform="translate(-935.82 -576.2)"/><path class="cls-1" d="M987.66,681v-.62h2.86V681h-1v3.38h-.77V681Z" transform="translate(-935.82 -576.2)"/><path class="cls-1" d="M991.9,682.78v1.6h-.78v-4h1.42a1.42,1.42,0,0,1,1,.34,1.16,1.16,0,0,1,.36.86,1.24,1.24,0,0,1-.22.71,1.14,1.14,0,0,1-.69.44l1,1.65h-.92l-.93-1.6Zm0-1.78v1.16h.64A.63.63,0,0,0,993,682a.69.69,0,0,0,0-.86.63.63,0,0,0-.45-.15Z" transform="translate(-935.82 -576.2)"/><path class="cls-1" d="M996.46,684.38h-.78V683l-1.3-2.62h.87l.83,1.88.82-1.88h.87L996.46,683Z" transform="translate(-935.82 -576.2)"/><path class="cls-1" d="M999.92,682.84v-2.46h.78v2.46a.83.83,0,0,0,.2.62.73.73,0,0,0,.58.22.75.75,0,0,0,.58-.22.83.83,0,0,0,.2-.62v-2.46h.78v2.46a1.49,1.49,0,0,1-.46,1.17,1.65,1.65,0,0,1-1.12.41,1.56,1.56,0,0,1-1.1-.41A1.49,1.49,0,0,1,999.92,682.84Z" transform="translate(-935.82 -576.2)"/><path class="cls-1" d="M1006.38,680.37h.78v4h-.78l-1.75-2.78v2.78h-.78v-4h.78l1.75,2.77Z" transform="translate(-935.82 -576.2)"/><path class="cls-1" d="M1008,684.38v-4h.78v4Z" transform="translate(-935.82 -576.2)"/><path class="cls-1" d="M1010.68,684.38l-1.42-4h.83l1.06,3.19,1.05-3.19h.83l-1.41,4Z" transform="translate(-935.82 -576.2)"/><path class="cls-1" d="M1015.76,680.37V681h-1.45v1h1.28v.62h-1.28v1.11h1.45v.62h-2.23v-4Z" transform="translate(-935.82 -576.2)"/><path class="cls-1" d="M1017.33,682.78v1.6h-.78v-4H1018a1.44,1.44,0,0,1,1,.34,1.16,1.16,0,0,1,.36.86,1.24,1.24,0,0,1-.22.71,1.17,1.17,0,0,1-.7.44l1,1.65h-.93l-.92-1.6Zm0-1.78v1.16h.65a.6.6,0,0,0,.44-.15.66.66,0,0,0,0-.86.6.6,0,0,0-.44-.15Z" transform="translate(-935.82 -576.2)"/><path class="cls-1" d="M1021.4,681a.56.56,0,0,0-.38.12.42.42,0,0,0-.15.34.5.5,0,0,0,.11.34.7.7,0,0,0,.28.19,3.59,3.59,0,0,0,.39.12,3.38,3.38,0,0,1,.42.13,1.73,1.73,0,0,1,.39.18.73.73,0,0,1,.28.32,1,1,0,0,1,.11.5,1.11,1.11,0,0,1-.38.85,1.39,1.39,0,0,1-1,.36,1.63,1.63,0,0,1-1-.31,1,1,0,0,1-.39-.86h.83a.52.52,0,0,0,.58.52.56.56,0,0,0,.42-.14.46.46,0,0,0,.16-.38.44.44,0,0,0-.21-.38,1.36,1.36,0,0,0-.49-.2c-.19,0-.39-.1-.58-.17a1,1,0,0,1-.5-.34.93.93,0,0,1-.21-.64,1.11,1.11,0,0,1,.38-.87,1.48,1.48,0,0,1,1-.33,1.56,1.56,0,0,1,1,.28,1.1,1.1,0,0,1,.4.87h-.85a.56.56,0,0,0-.17-.37A.51.51,0,0,0,1021.4,681Z" transform="translate(-935.82 -576.2)"/><path class="cls-1" d="M1023.6,684.38v-4h.78v4Z" transform="translate(-935.82 -576.2)"/><path class="cls-1" d="M1025,681v-.62h2.86V681h-1v3.38H1026V681Z" transform="translate(-935.82 -576.2)"/><path class="cls-1" d="M1030.2,684.38h-.78V683l-1.31-2.62h.87l.83,1.88.82-1.88h.87l-1.3,2.62Z" transform="translate(-935.82 -576.2)"/><polygon class="cls-1" points="57.58 43.59 68.25 43.59 47.91 18.55 27.58 43.59 38.24 43.59 41.75 39.27 45.25 43.59 51.66 43.59 44.95 35.33 47.91 31.68 57.58 43.59"/></svg>