<?xml version="1.0" standalone="no"?>
<!DOCTYPE svg PUBLIC "-//W3C//DTD SVG 20010904//EN"
 "http://www.w3.org/TR/2001/REC-SVG-20010904/DTD/svg10.dtd">
<svg version="1.0" xmlns="http://www.w3.org/2000/svg"
 width="700.000000pt" height="700.000000pt" viewBox="0 0 700.000000 700.000000"
 preserveAspectRatio="xMidYMid meet">
<metadata>
Created by potrace 1.14, written by Peter Selinger 2001-2017
</metadata>
<g transform="translate(0.000000,700.000000) scale(0.100000,-0.100000)"
fill="#000000" stroke="none">
<path d="M3455 6910 c-16 -11 -46 -28 -67 -39 -20 -11 -101 -58 -180 -105 -78
-46 -159 -92 -178 -103 -19 -11 -78 -45 -130 -75 -52 -30 -187 -108 -300 -173
-512 -295 -892 -515 -910 -526 -27 -16 -303 -175 -410 -236 -256 -147 -752
-433 -759 -439 -8 -7 -3 -3426 5 -3434 9 -9 424 -250 430 -250 2 0 23 -13 47
-30 25 -16 47 -30 50 -30 3 0 56 -29 117 -65 61 -36 130 -76 153 -89 94 -52
117 -66 182 -105 37 -23 69 -41 71 -41 2 0 27 -14 56 -31 29 -18 67 -40 83
-49 17 -9 118 -68 225 -130 107 -62 300 -173 428 -247 129 -74 248 -143 265
-153 18 -10 55 -31 82 -45 28 -15 57 -33 66 -41 8 -8 18 -14 21 -14 2 0 157
-88 342 -195 186 -107 343 -195 348 -195 5 0 37 16 69 35 33 19 64 35 70 35 5
0 9 5 9 10 0 6 4 10 10 10 5 0 92 48 192 106 176 102 222 128 298 172 19 10
76 43 125 72 119 69 158 92 246 142 13 7 26 15 29 18 3 3 19 12 35 21 80 43
100 54 105 59 3 3 16 11 30 18 14 7 39 20 55 31 17 10 77 45 135 78 109 62
609 351 785 453 316 184 547 317 595 343 30 17 78 44 105 62 28 17 57 34 65
37 14 5 15 198 15 1724 l0 1718 -50 29 c-53 31 -436 251 -495 284 -19 11 -73
43 -120 70 -47 28 -103 61 -125 73 -22 12 -166 95 -320 185 -154 89 -300 173
-325 187 -25 14 -126 72 -225 130 -99 57 -200 116 -225 130 -25 14 -117 67
-205 118 -88 51 -173 101 -190 110 -16 9 -149 86 -294 170 -146 84 -279 160
-295 170 -17 9 -47 27 -66 38 -41 26 -37 26 -75 2z"/>
</g>
</svg>
